<svg width="112" height="21" viewBox="0 0 112 21" fill="none" xmlns="http://www.w3.org/2000/svg">
<path d="M5.93101 12.3425H5.93115L5.93087 12.3306C5.8904 10.6368 6.99305 9.58916 8.36911 9.58916C9.22426 9.58916 9.73345 9.95807 10.04 10.3191C10.1976 10.5047 10.3036 10.6917 10.3697 10.8318C10.4025 10.9014 10.4248 10.9579 10.4382 10.9948C10.4449 11.0132 10.4493 11.0266 10.4517 11.0341L10.4537 11.0404L10.4538 11.0406L10.4538 11.0408L10.556 11.4018H10.9341H14.9448H15.523L15.4396 10.8296L14.9448 10.9018C15.4396 10.8296 15.4396 10.8293 15.4395 10.829L15.4394 10.8283L15.4392 10.8266L15.4384 10.8216L15.4359 10.8057C15.4337 10.7925 15.4306 10.7743 15.4265 10.7514C15.4182 10.7055 15.4055 10.6407 15.3875 10.5596C15.3514 10.3975 15.2937 10.1696 15.2055 9.89778C15.0296 9.35566 14.7298 8.62998 14.2329 7.9012C13.2268 6.4257 11.426 4.96399 8.32247 4.96399V4.96395L8.31661 4.96402C4.07904 5.01371 1.01355 8.07132 1.01355 12.389C1.01355 14.5095 1.77019 16.3484 3.08436 17.6581C4.39841 18.9676 6.24285 19.7211 8.36911 19.7211C11.4942 19.7211 13.3068 18.261 14.3195 16.7851C14.8196 16.0561 15.1211 15.3303 15.2978 14.7879C15.3864 14.5159 15.4444 14.288 15.4806 14.1258C15.4987 14.0446 15.5114 13.9797 15.5197 13.9338C15.5239 13.9109 15.527 13.8926 15.5291 13.8794L15.5317 13.8635L15.5324 13.8585L15.5327 13.8567L15.5328 13.856C15.5328 13.8557 15.5329 13.8554 15.0381 13.7833L15.5329 13.8554L15.6163 13.2833H15.0381H11.0274H10.6585L10.5505 13.6331L10.5504 13.6332L10.5504 13.6334L10.5482 13.64C10.5455 13.6476 10.5407 13.6611 10.5334 13.6797C10.5189 13.7169 10.495 13.7738 10.4602 13.8438C10.3901 13.9848 10.2785 14.1732 10.1147 14.3604C9.79512 14.7258 9.27208 15.0959 8.41574 15.0959C7.68409 15.0959 7.07295 14.8228 6.64211 14.3604C6.20942 13.896 5.93101 13.2101 5.93101 12.3425Z" fill="#18181B" stroke="white"/>
<path d="M16.7789 9.73642L16.7237 10.2863H17.2764H21.0539H21.4185L21.5281 9.94509C21.529 9.94274 21.5308 9.9382 21.5335 9.93172C21.5405 9.91519 21.5537 9.88655 21.5744 9.84973C21.6159 9.7758 21.6862 9.67183 21.7963 9.5664C22.0064 9.36508 22.3954 9.12443 23.1059 9.12443C23.6573 9.12443 24.0344 9.28928 24.2717 9.52183C24.4699 9.71615 24.6069 9.99317 24.6463 10.3553H22.1732C20.2764 10.3553 18.7855 10.8278 17.76 11.6861C16.7248 12.5524 16.2167 13.7682 16.2167 15.1311C16.2167 16.4303 16.7285 17.6034 17.6865 18.4462C18.6407 19.2857 20.0021 19.7676 21.6602 19.7676C22.9983 19.7676 23.9956 19.3764 24.6631 18.9759C24.8405 18.8695 24.9943 18.7627 25.1248 18.6628L25.2315 19.1058L25.3237 19.4887H25.7176H29.0754H29.5754V18.9887V10.53C29.5754 8.9403 29.0018 7.54213 27.8728 6.54712C26.75 5.5575 25.1285 5.0105 23.1059 5.0105C21.1981 5.0105 19.6818 5.52318 18.6022 6.38648C17.5202 7.25169 16.9084 8.4451 16.7789 9.73642ZM24.6113 13.8186V14.0974H24.6144C24.534 14.5334 24.3464 14.8778 24.083 15.1306C23.7239 15.4752 23.1708 15.7001 22.4064 15.7001C21.9147 15.7001 21.5828 15.5636 21.3827 15.3943C21.1871 15.2288 21.0876 15.0087 21.0876 14.7593C21.0876 14.5141 21.183 14.302 21.3947 14.1382C21.6185 13.9652 22.0113 13.8186 22.6396 13.8186H24.6113Z" fill="#18181B" stroke="white"/>
<path d="M54.4538 15.0543L54.6683 14.3988H53.9786H50.0611H49.797L49.6498 14.6144L49.6481 14.6169C49.6451 14.6209 49.6393 14.6287 49.6306 14.6398C49.6131 14.6621 49.5841 14.6973 49.5436 14.7412C49.4623 14.8292 49.3363 14.9504 49.1649 15.0724C48.8247 15.3145 48.3061 15.5607 47.5894 15.5607C46.8437 15.5607 46.2593 15.3121 45.847 14.9199C45.5481 14.6355 45.3248 14.2613 45.2008 13.8186H54.2118H54.5578L54.6797 13.4947L54.2118 13.3186C54.6797 13.4947 54.6798 13.4945 54.6799 13.4943L54.68 13.4939L54.6803 13.4931L54.681 13.4914L54.6824 13.4875L54.6857 13.4782C54.6881 13.4713 54.6909 13.4628 54.6941 13.4528C54.7005 13.4329 54.7082 13.4068 54.7169 13.3743C54.7342 13.3092 54.7549 13.2184 54.7749 13.0989C54.8147 12.8606 54.8515 12.5085 54.8517 12.0204C54.9004 8.05485 51.8138 5.0105 47.636 5.0105C45.5098 5.0105 43.6653 5.76395 42.3513 7.0735C41.0371 8.38316 40.2805 10.2221 40.2805 12.3426C40.2805 14.463 41.0371 16.3019 42.3513 17.6116C43.6653 18.9212 45.5098 19.6746 47.636 19.6746C50.2729 19.6746 51.9866 18.5268 53.0318 17.3722C53.5505 16.7992 53.903 16.2272 54.1264 15.7975C54.2383 15.5822 54.3185 15.4014 54.3715 15.2721C54.398 15.2074 54.4177 15.1555 54.4312 15.1185C54.438 15.1 54.4432 15.0853 54.447 15.0745L54.4515 15.0613L54.4529 15.057L54.4534 15.0554L54.4536 15.0548C54.4537 15.0545 54.4538 15.0543 53.9786 14.8988L54.4538 15.0543ZM49.9263 10.5877H45.3186C45.4959 10.1284 45.7395 9.78884 46.0272 9.54829C46.4273 9.2137 46.9594 9.03147 47.636 9.03147C48.2986 9.03147 48.8196 9.22882 49.2201 9.57696C49.5021 9.82204 49.7419 10.1573 49.9263 10.5877Z" fill="#18181B" stroke="white"/>
<path d="M69.9373 15.0543L70.1518 14.3988H69.4621H65.5446H65.2805L65.1334 14.6144L65.1334 14.6144L65.1316 14.6169C65.1286 14.6209 65.1228 14.6287 65.1141 14.6398C65.0966 14.6621 65.0677 14.6973 65.0271 14.7412C64.9458 14.8292 64.8198 14.9504 64.6484 15.0724C64.3082 15.3145 63.7896 15.5607 63.0729 15.5607C62.3272 15.5607 61.7428 15.3121 61.3305 14.9199C61.0316 14.6355 60.8083 14.2613 60.6843 13.8186H69.6953H70.0414L70.1632 13.4947L69.6953 13.3186C70.1632 13.4947 70.1633 13.4945 70.1634 13.4943L70.1635 13.4939L70.1638 13.4931L70.1645 13.4914L70.1659 13.4875L70.1692 13.4782C70.1702 13.4752 70.1713 13.472 70.1725 13.4685C70.1741 13.4638 70.1758 13.4586 70.1776 13.4528C70.184 13.4329 70.1917 13.4068 70.2004 13.3743C70.2177 13.3092 70.2384 13.2184 70.2584 13.0989C70.2983 12.8601 70.3352 12.507 70.3352 12.0172C70.3352 8.05858 67.2555 5.0105 63.1195 5.0105C60.9933 5.0105 59.1488 5.76395 57.8348 7.0735C56.5206 8.38316 55.764 10.2221 55.764 12.3426C55.764 14.463 56.5206 16.3019 57.8348 17.6116C59.1488 18.9212 60.9933 19.6746 63.1195 19.6746C65.7564 19.6746 67.4701 18.5268 68.5153 17.3722C69.034 16.7992 69.3865 16.2272 69.6099 15.7975C69.7218 15.5822 69.802 15.4014 69.855 15.2721C69.8815 15.2074 69.9012 15.1555 69.9148 15.1185C69.9215 15.1 69.9267 15.0853 69.9305 15.0745L69.935 15.0613L69.9364 15.057L69.9369 15.0554L69.9371 15.0548C69.9372 15.0545 69.9373 15.0543 69.4621 14.8988L69.9373 15.0543ZM65.4098 10.5877H60.8021C60.9794 10.1284 61.223 9.78884 61.5107 9.54829C61.9108 9.2137 62.4429 9.03147 63.1195 9.03147C63.7821 9.03147 64.3031 9.22882 64.7036 9.57696C64.9856 9.82204 65.2254 10.1573 65.4098 10.5877Z" fill="#18181B" stroke="white"/>
<path d="M86.8452 5.74255V5.24255H86.3452H82.1479H81.6479V5.74255V18.9419V19.4419H82.1479H86.3452H86.8452V18.9419V5.74255Z" fill="#18181B" stroke="white"/>
<path d="M100.71 9.64691C101.208 9.61317 101.208 9.61282 101.208 9.61247L101.208 9.61167L101.208 9.60979L101.208 9.60489L101.207 9.59058C101.206 9.57908 101.204 9.56367 101.202 9.54462C101.198 9.50655 101.191 9.45381 101.18 9.38851C101.159 9.25804 101.122 9.07648 101.059 8.86078C100.934 8.43034 100.703 7.85655 100.278 7.28168C99.4119 6.10859 97.7989 5.0105 94.88 5.0105C92.9083 5.0105 91.356 5.52009 90.2851 6.36745C89.2086 7.21918 88.6437 8.39531 88.6437 9.64691C88.6437 10.8698 89.0074 11.8794 89.8546 12.6345C90.6782 13.3686 91.8997 13.8074 93.5006 14.0455L93.5037 14.046L95.4625 14.3248L95.4625 14.3249L95.4736 14.3263C96.0323 14.3931 96.2893 14.5068 96.4104 14.6128C96.5002 14.6913 96.5719 14.8155 96.5719 15.1311C96.5719 15.3673 96.3055 15.9325 95.0199 15.9325C94.0279 15.9325 93.6332 15.6012 93.4651 15.3709C93.3721 15.2434 93.3254 15.1156 93.3022 15.0202C93.2907 14.9729 93.2854 14.9354 93.2831 14.9128C93.282 14.9026 93.2816 14.8957 93.2814 14.8926L93.2814 14.3988H92.7814H89.0038H88.5038L88.5038 14.8988H89.0038C88.5038 14.8988 88.5038 14.8991 88.5038 14.8995L88.5038 14.9003L88.5039 14.9023L88.5039 14.9074L88.5041 14.9224C88.5044 14.9345 88.5049 14.9508 88.5058 14.971C88.5077 15.0114 88.5112 15.0674 88.5179 15.1369C88.5315 15.2757 88.558 15.4692 88.6103 15.6994C88.7145 16.1585 88.9232 16.7723 89.3426 17.3879C90.2007 18.6474 91.8708 19.814 95.0199 19.814C97.0577 19.814 98.6341 19.3064 99.7129 18.458C100.799 17.6039 101.35 16.426 101.35 15.1776C101.35 13.8467 100.968 12.7386 100.118 11.9188C99.282 11.1121 98.0548 10.6458 96.4848 10.4526L94.5308 10.1744L94.5308 10.1743L94.5197 10.1729C93.9672 10.1069 93.6841 9.99273 93.5482 9.89359C93.4478 9.8204 93.4213 9.75501 93.4213 9.64691C93.4213 9.51348 93.4787 9.37241 93.6807 9.24296C93.899 9.10312 94.2835 8.985 94.88 8.985C95.6725 8.985 96.0513 9.23317 96.2316 9.41653C96.3276 9.51414 96.3829 9.60916 96.4132 9.67491C96.4284 9.70777 96.4371 9.73276 96.4412 9.74613C96.4423 9.74951 96.443 9.7521 96.4435 9.75384L96.5224 10.1469H96.932H100.71H101.245L101.208 9.61317L100.71 9.64691Z" fill="#18181B" stroke="white"/>
<path d="M31.0468 18.9419V19.4419H31.5468H35.4643H35.9643V18.9419V11.6916V9.86773H39.7082H40.2082V9.36773V5.74255V5.24255H39.7082H31.5468H31.0468V5.74255V18.9419Z" fill="#18181B" stroke="white"/>
<path d="M70.8745 18.9419V19.4419H71.3745H75.2919H75.7919V18.9419V11.6916V9.86773H79.5825H80.0825V9.36773V5.74255V5.24255H79.5825H71.3745H70.8745V5.74255V18.9419Z" fill="#18181B" stroke="white"/>
<path d="M108.391 9.86766H110.829H111.329V9.36766V5.74249V1.60608V1.10608H110.829H106.538H106.038V1.60608V5.24249H101.875H101.375V5.74249V9.36766V9.86766H101.875H103.427V15.3631C103.427 16.6172 103.781 17.6699 104.541 18.4062C105.298 19.1402 106.385 19.4883 107.704 19.4883H110.829H111.329V18.9883V15.3631V14.8631H110.829H108.823C108.554 14.8631 108.481 14.8037 108.465 14.7882C108.45 14.7731 108.391 14.7008 108.391 14.4336V9.86766Z" fill="#18181B" stroke="white"/>
</svg>
